<?xml version="1.0" encoding="UTF-8"?> <svg xmlns="http://www.w3.org/2000/svg" xmlns:xlink="http://www.w3.org/1999/xlink" width="167px" height="167px" viewBox="0 0 167 167" version="1.1"><title>0FAB69EA-FC2E-464D-8484-34129438ADDC</title><defs><filter id="filter-1"><feColorMatrix in="SourceGraphic" type="matrix" values="0 0 0 0 1.000000 0 0 0 0 1.000000 0 0 0 0 1.000000 0 0 0 1.000000 0"></feColorMatrix></filter></defs><g id="Home-2" stroke="none" stroke-width="1" fill="none" fill-rule="evenodd"><g transform="translate(-556.000000, -1051.000000)" id="Play" filter="url(#filter-1)"><g transform="translate(556.000000, 1051.000000)" id="Group" fill="#000000" fill-rule="nonzero"><path d="M74.9284503,153.043871 C76.545309,153.188113 77.7792814,153.795989 78.6299279,154.868971 C79.4741246,155.940482 79.8183117,157.354934 79.6629291,159.112329 C79.5062272,160.882971 78.9491952,162.250324 77.9919797,163.215861 C77.0280212,164.179926 75.8141312,164.596461 74.3501632,164.466938 C72.9794247,164.344774 71.9349897,163.792828 71.2168582,162.812573 C70.4981403,161.839676 70.2045258,160.612149 70.3357215,159.128519 L70.4288045,158.076143 L77.9647144,158.748781 C78.0454841,157.456492 77.8094784,156.448272 77.2564043,155.725591 C76.6965871,155.00291 75.8578142,154.590791 74.739939,154.490704 C73.5621095,154.386203 72.3757779,154.528973 71.1807977,154.920486 L71.31214,153.438328 C71.9201844,153.236684 72.4917285,153.105689 73.026919,153.045343 C73.5559528,152.977637 74.1897966,152.977637 74.9284503,153.043871 Z M74.493379,163.074563 C75.3717305,163.154043 76.0992436,162.928849 76.6757717,162.401925 C77.2455568,161.873529 77.6221398,161.105221 77.8050808,160.098472 L72.0858281,159.587738 C71.9930383,160.637171 72.1548708,161.459938 72.5716186,162.056039 C72.9877802,162.658028 73.628367,162.998026 74.493379,163.074563 Z" id="Shape"></path><path d="M55.037131,148.381034 L54.8134387,149.969166 L54.8887846,149.997131 C55.6388721,149.536441 56.3134672,149.283281 56.9127164,149.237654 C57.5034635,149.196442 58.1817232,149.315662 58.9476422,149.595315 C59.9709686,149.969166 60.6786924,150.526999 61.070667,151.270286 C61.456485,152.010629 61.4723164,152.86872 61.1184545,153.846032 C60.3603046,155.93901 58.2962079,156.427666 54.9260178,155.310528 L53.1539231,154.727673 L52.9209958,155.370874 C52.6263552,156.183338 52.5851641,156.847144 52.7974226,157.35935 C53.0011791,157.875971 53.4859435,158.274844 54.2518625,158.554496 C55.1120372,158.868001 56.1809522,158.959256 57.4589009,158.826789 L57.5041964,160.202974 C56.8951259,160.294229 56.2608423,160.308947 55.6010526,160.245657 C54.9349596,160.180896 54.2974512,160.038126 53.6885272,159.815876 C52.4579263,159.365488 51.647005,158.759084 51.2556167,157.995191 C50.8577786,157.229827 50.8781542,156.24074 51.3165971,155.030875 L53.8787976,147.958612 L55.037131,148.381034 Z M58.1676508,150.777214 C57.1946039,150.421025 56.3347224,150.410722 55.5881529,150.744833 C54.8352802,151.076001 54.2842583,151.725089 53.934794,152.689154 L53.5957374,153.625254 L55.1829854,154.1301 C56.4420243,154.539276 57.4105271,154.671743 58.0884936,154.527501 C58.7581047,154.386203 59.224106,153.953477 59.4867905,153.229325 C59.692306,152.661189 59.6791132,152.168117 59.4475051,151.747167 C59.2095938,151.324744 58.782878,151.002408 58.1676508,150.777214 Z" id="Shape"></path><path d="M40.9791094,142.071192 C40.7331358,141.909288 40.4845236,141.770934 40.2332728,141.653185 C39.978504,141.542796 39.7712295,141.461844 39.6114492,141.413273 L40.3078858,140.344706 C40.5063651,140.369728 40.7683167,140.458039 41.0938873,140.608168 C41.4175522,140.747994 41.6968011,140.89518 41.9316341,141.049725 C43.7097388,142.216906 43.9863492,143.740276 42.7616117,145.621306 L39.1860527,151.112797 L40.502847,151.976776 L40.064111,152.650886 L38.3689747,152.366818 L36.4986665,153.952005 L35.6934621,153.42361 L37.0864818,151.285004 L34.4194713,149.533497 L35.1269019,148.447268 L37.7939125,150.198775 L41.330919,144.766158 C41.6929898,144.211269 41.8394306,143.697592 41.770388,143.22807 C41.7013453,142.757076 41.4376347,142.37145 40.9791094,142.071192 Z" id="Path"></path><path d="M18.4515629,120.695736 C19.3057274,120.132163 20.1736712,120.017064 21.0552477,120.350439 C21.9368241,120.683814 22.7555145,121.427837 23.5111724,122.582654 C24.3108065,123.804736 24.7417733,124.88493 24.804073,125.822943 L23.5143973,126.673823 C23.4479932,126.083609 23.3138658,125.493836 23.1121616,124.904653 C22.9066461,124.309729 22.6499716,123.776918 22.341845,123.305924 C21.8648497,122.577209 21.3836034,122.092085 20.8979594,121.850701 C20.4065986,121.612996 19.9237398,121.650676 19.4490899,121.963739 C19.0918565,122.199531 18.8902988,122.557191 18.844417,123.036869 C18.7894467,123.514633 18.8841422,124.319002 19.1285033,125.449828 C19.3715452,126.517512 19.4949717,127.310841 19.4989296,127.829965 C19.4936524,128.347174 19.398957,128.794913 19.2148433,129.173179 C19.0270649,129.545853 18.7237756,129.87025 18.3051221,130.146517 C17.5569402,130.640177 16.7680069,130.72319 15.9383225,130.395702 C15.1029211,130.072041 14.3368555,129.37762 13.6398325,128.312439 C12.9904505,127.320261 12.5568451,126.217695 12.3388697,125.005181 L13.794189,124.755407 C14.019787,125.93083 14.3783397,126.894159 14.8698471,127.645394 C15.3027196,128.306846 15.7325138,128.737658 16.1592296,128.937683 C16.5859454,129.137855 16.9807052,129.118132 17.3436555,128.878661 C17.5891894,128.71661 17.7582046,128.516879 17.8507012,128.279322 C17.9393866,128.036172 17.9701699,127.722961 17.9430513,127.339543 C17.9159326,126.956124 17.7898675,126.268768 17.5650025,125.277474 C17.2460284,123.922778 17.1627667,122.922359 17.3153642,122.27592 C17.4642969,121.623888 17.8429321,121.097111 18.4515629,120.695736 Z" id="Path"></path><polygon id="Path" points="15.3650193 107.176895 15.952688 108.739269 1.36613096 114.270353 0.778462212 112.707832"></polygon><path d="M11.801627,91.9583563 C12.0295703,93.5720981 11.7201244,94.916932 10.8735823,95.9927108 C10.0258676,97.0618663 8.73238068,97.7203742 6.9928284,97.9680874 C5.24008326,98.2175668 3.7868161,97.9842778 2.63302694,97.2677788 C1.47832894,96.5446565 0.797797085,95.4526872 0.59143139,93.9915768 C0.398214582,92.6234876 0.695083317,91.4769125 1.48206691,90.5518517 C2.26242476,89.6278211 3.38677918,89.0611569 4.85514483,88.8521535 L5.89694125,88.7037905 L6.95911331,96.2249696 C8.23105189,96.0099315 9.1545523,95.5498297 9.72961454,94.8446639 C10.3037973,94.1328749 10.5120979,93.2191473 10.3545165,92.1034812 C10.1885796,90.9279106 9.77960083,89.8006169 9.1278734,88.7213056 L10.596239,88.512155 C10.9301651,89.0608626 11.1871327,89.5899944 11.3669954,90.0995506 C11.552575,90.6016004 11.6974033,91.2211041 11.801627,91.9583563 Z M1.97332516,93.8151014 C2.09713284,94.6917382 2.48050279,95.3518652 3.12343498,95.7956295 C3.76541435,96.2326232 4.59568519,96.4260249 5.61417422,96.3758347 L4.8079437,90.6676867 C3.76951879,90.8156081 3.00864241,91.1610524 2.52531454,91.7040198 C2.03537559,92.2480174 1.85137912,92.9517112 1.97332516,93.8151014 Z" id="Shape"></path><path d="M11.7443113,73.5785671 C11.5509626,75.1970188 10.907444,76.4165979 9.8136091,77.2374514 C8.7205071,78.0515344 7.30183457,78.353559 5.55729832,78.1435253 C3.7995692,77.9317254 2.45511385,77.330767 1.523815,76.3403558 C0.593307709,75.3433212 0.215581382,74.1121145 0.390606698,72.6468829 C0.554506033,71.2749668 1.13522654,70.2437852 2.13276823,69.5531909 C3.12368417,68.8618606 4.3554285,68.6048747 5.8278986,68.7822332 L6.87262676,68.9080768 L5.97155422,76.4504505 C7.25565955,76.5712898 8.26593968,76.3652301 9.00239461,75.8324186 C9.73972906,75.2929838 10.1752401,74.4637407 10.3087812,73.3449837 C10.4496517,72.166175 10.3435224,70.9710288 9.99024687,69.7598393 L11.462717,69.9371978 C11.6447785,70.5536107 11.7575042,71.1313138 11.8007474,71.6701599 C11.8514667,72.2032658 11.8327035,72.8394015 11.7443113,73.5785671 Z M1.77118118,72.8335141 C1.66615133,73.7126531 1.86743044,74.4496109 2.37500386,75.0443875 C2.8833835,75.6325407 3.63612429,76.0340628 4.63321156,76.2486592 L5.31704162,70.524468 C4.27568497,70.3990659 3.45181999,70.5362428 2.84560794,70.9361458 C2.23274082,71.3353129 1.87461322,71.9676218 1.77118118,72.8335141 Z" id="Shape"></path><path d="M16.5712867,55.3930627 C16.2996603,56.0570165 15.9305533,56.6154383 15.4636726,57.0681809 C14.9931271,57.5123867 14.4284726,57.8160304 13.7694158,57.9794063 L13.7238271,58.0911201 C14.3474098,58.2612665 14.924964,58.4558458 15.4564898,58.675005 L19.6370149,60.3986944 L19.0052233,61.9437005 L4.28521315,55.8745065 L4.79900187,54.6179839 L6.27704229,54.9772637 L6.30753246,54.9027878 C5.91365221,54.2763663 5.70110053,53.648473 5.66958424,53.0191078 C5.63806796,52.3897426 5.76193428,51.733884 6.04103663,51.0513849 C6.59425735,49.6986029 7.48096433,48.8461045 8.70115757,48.4934481 C9.9238428,48.134757 11.3664091,48.2981329 13.0288564,48.9835758 C14.6973138,49.6715208 15.8415748,50.5820103 16.4613462,51.7148971 C17.0777461,52.8390999 17.1142463,54.0651551 16.5712867,55.3930627 Z M7.25668566,51.8136586 C6.8304096,52.8560263 6.8094476,53.7283947 7.19379968,54.4307639 C7.57815176,55.1329859 8.39508315,55.7491044 9.64444728,56.2786779 L9.98746171,56.4201231 C11.4149295,57.0087179 12.5354433,57.1915223 13.34871,56.9685363 C14.1559667,56.7429009 14.7752983,56.1027912 15.2067049,55.0479127 C15.5670167,54.1668603 15.4932832,53.3315826 14.9856512,52.5422268 C14.4805111,51.746542 13.6037721,51.0914193 12.3555806,50.5767116 C11.0887726,50.0543503 10.0157531,49.9056929 9.13666864,50.1305924 C8.25377293,50.3466607 7.62725852,50.9077318 7.25668566,51.8136586 Z" id="Shape"></path><path d="M22.5310893,39.4330031 L22.8059406,39.4446307 C23.248781,39.9762648 23.7341318,40.6330065 24.2616997,41.4148558 C24.7946914,42.2006792 25.2683152,42.9603036 25.6825711,43.6940233 L24.9549114,44.7176984 C24.4941873,44.1650169 23.90989,43.5032709 23.2021662,42.7323132 C22.4982537,41.9559097 21.9214324,41.3530379 21.4715558,40.9235506 L22.5310893,39.4330031 Z" id="Path"></path><path d="M43.4027849,10.0268122 L43.9261018,10.9433363 L42.2808052,12.1686556 C42.5594678,12.2788975 42.8571867,12.4631738 43.173962,12.7214843 C43.4875124,12.9739074 43.7622171,13.306841 43.9982228,13.7199907 C44.5331201,14.6568264 44.641155,15.5880691 44.3226206,16.5137187 C44.0040863,17.4393683 43.2883002,18.2223952 42.1755555,18.8629465 C41.8916157,19.0263224 41.6116339,19.1565815 41.335903,19.2534296 C40.9075747,19.9328378 40.8347208,20.5199608 41.1170481,21.0146513 C41.2665672,21.2764943 41.485129,21.4096971 41.7725868,21.4142599 C42.0568197,21.4130824 42.4597884,21.2623645 42.9813462,20.962106 L44.6678339,19.9914177 C45.6995158,19.3976714 46.615247,19.1605555 47.4150277,19.2800702 C48.2205253,19.3961995 48.8608189,19.8704312 49.3359086,20.702618 C49.9405814,21.7617649 49.977668,22.8111975 49.4471684,23.851063 C48.9198936,24.896816 47.8448219,25.8866385 46.2220997,26.8206777 C44.9759605,27.5379126 43.8810995,27.8589242 42.9372234,27.7835652 C41.9990643,27.7051153 41.2875292,27.2408923 40.8024716,26.3913376 C40.470158,25.8093661 40.3682798,25.1992822 40.4966903,24.5609387 C40.6251009,23.9225952 40.9821877,23.3342947 41.5680974,22.7960374 C41.2615832,22.8256217 40.9578542,22.7723405 40.6569103,22.6363411 C40.3616834,22.4969564 40.1261175,22.2730873 39.9500661,21.9645865 C39.7507072,21.6154625 39.6690581,21.2566242 39.704972,20.8879246 C39.7408859,20.5193721 39.8890857,20.0978328 40.1494249,19.6231596 C39.540501,19.7030813 38.9400791,19.588571 38.3480127,19.279923 C37.7618098,18.9678897 37.2892122,18.497632 36.9303663,17.86915 C36.3324364,16.8216308 36.1852627,15.8356351 36.4888452,14.9108686 C36.7892027,13.9802147 37.5131977,13.1846771 38.6606836,12.5242557 C39.1592272,12.2373912 39.6414996,12.0369246 40.1079406,11.9231502 L43.4027849,10.0268122 Z M42.1834712,25.5732806 C42.4791379,26.0912263 42.920659,26.3588096 43.5081812,26.3763246 C44.0957034,26.3938397 44.7952183,26.1690875 45.6065794,25.7020679 C46.8178308,25.0048502 47.6086696,24.3061606 47.9789493,23.6059992 C48.3583174,22.9083399 48.370191,22.2480658 48.0147166,21.6254711 C47.7190499,21.1075253 47.3537542,20.8384702 46.9186829,20.8181586 C46.4869831,20.8038816 45.8305649,21.050123 44.9497214,21.557177 L43.2196973,22.5530341 C42.5647449,22.9299762 42.1444789,23.3806582 41.9587527,23.9050801 C41.7730265,24.4293549 41.8479327,24.9854217 42.1834712,25.5732806 Z M38.3362857,17.0137078 C38.7182924,17.6828131 39.1957275,18.0808027 39.7684443,18.2072351 C40.3411611,18.3338146 40.9637177,18.2035554 41.6359674,17.8166047 C43.0443788,17.005907 43.3564633,15.9139378 42.5723675,14.5405499 C41.7517714,13.1032835 40.628619,12.7947827 39.2029102,13.615489 C38.5247971,14.005825 38.107756,14.4893293 37.9519337,15.0660021 C37.7961113,15.6428221 37.9242286,16.2920573 38.3362857,17.0137078 Z" id="Shape"></path><path d="M57.3719746,4.00780838 L59.1085951,3.59911841 L62.879262,9.17063414 C63.7193542,10.4473212 64.2734544,11.3812132 64.5418559,11.9726045 L64.6199869,11.9542063 C64.62673,11.6012555 64.6698266,10.9917603 64.7489838,10.1257208 C64.833125,9.25158616 65.1383199,6.56177116 65.6647151,2.05621697 L67.4013356,1.647527 L65.6598777,14.9544355 C65.4866114,16.2696851 65.1529786,17.2508237 64.6589792,17.8975568 C64.1730421,18.5492942 63.4877461,18.979223 62.6032379,19.1873433 C62.1089453,19.303767 61.6080563,19.3629356 61.100864,19.3652906 L60.7968418,18.0624045 C61.1728384,18.0565171 61.5819638,18.0016169 62.0242178,17.8975568 C63.1363762,17.6357138 63.7835594,16.8220723 63.9657675,15.4564853 L64.2041186,13.7881376 L57.3719746,4.00780838 Z" id="Path"></path><path d="M93.5498833,12.3177545 L94.1926689,5.17292879 C94.2713863,4.29776381 94.1440019,3.62615638 93.8105156,3.15819481 C93.4776157,2.68349213 92.9185315,2.41053662 92.1335561,2.33932828 C91.1021674,2.24579189 90.313674,2.47397357 89.7677826,3.02388804 C89.2220379,3.57378778 88.8935356,4.46673277 88.7822758,5.70250222 L88.2305209,11.8352804 L86.5739371,11.685004 L87.2167227,4.54017833 C87.2954401,3.66501335 87.1680557,2.99349423 86.8345694,2.52547378 C86.5015229,2.05075639 85.9392138,1.77750651 85.1474954,1.70569471 C84.1096569,1.61155486 83.319551,1.85644209 82.7773243,2.44035641 C82.242427,3.01817724 81.9109929,4.01855292 81.7828756,5.44154233 L81.2645427,11.2034131 L79.6078122,11.0531367 L80.5959577,0.0704638081 L81.9432422,0.19265721 L82.0775162,1.7202072 L82.1572597,1.72744872 C82.5181578,1.22138082 82.9947133,0.843673392 83.5873661,0.594341156 C84.1866152,0.345627099 84.8387824,0.253238761 85.5440142,0.317220298 C87.2539559,0.472309658 88.3158348,1.19497574 88.7296509,2.48520383 L88.809541,2.49244535 C89.1871501,1.94750576 89.700499,1.53607814 90.3492947,1.25817719 C90.9980904,0.980276253 91.7184207,0.877231685 92.5101391,0.94904349 C93.7476296,1.06128715 94.6435716,1.4658265 95.197965,2.16267624 C95.7596878,2.85343251 95.9773701,3.90021578 95.8511583,5.30318796 L95.2066137,12.4680309 L93.5498833,12.3177545 Z" id="Path"></path><path d="M108.708043,14.3241872 L108.764772,14.594567 C108.361071,15.1566684 107.846989,15.7910379 107.222673,16.4973811 C106.595866,17.2100533 105.979759,17.8585526 105.37406,18.4425847 L104.206345,17.9874871 C104.626025,17.4027191 105.120317,16.6707656 105.689663,15.7917738 C106.265018,14.9152842 106.704487,14.2051141 107.007923,13.6614109 L108.708043,14.3241872 Z" id="Path"></path><path d="M132.886603,33.459774 L133.738422,32.1024293 L133.68096,32.0463516 C132.808619,32.1588013 132.089901,32.1124379 131.52466,31.9072613 C130.968947,31.7019376 130.398722,31.314251 129.813985,30.7442015 C129.032821,29.9825166 128.614901,29.182269 128.560224,28.3434588 C128.510237,27.5092114 128.845922,26.7192668 129.567279,25.9734779 C131.112456,24.3757793 133.19473,24.7792148 135.814099,27.1836371 L137.193487,28.4441337 L137.666964,27.9532701 C138.267972,27.3325888 138.575805,26.7445828 138.59193,26.1893991 C138.61685,25.6340682 138.336868,25.0712308 137.751984,24.5011814 C137.095273,23.8609245 136.157114,23.3387103 134.936921,22.9345389 L135.457013,21.6603541 C136.050105,21.8271152 136.634989,22.0746812 137.211077,22.4029049 C137.791563,22.7359857 138.31488,23.1291182 138.779562,23.5824495 C139.719187,24.4982377 140.21172,25.3851775 140.257163,26.2431218 C140.308468,27.105776 139.886296,27.9988976 138.992114,28.9229281 L133.770818,34.3219866 L132.886603,33.459774 Z M131.007646,29.9866377 C131.750551,30.7109376 132.530542,31.0741914 133.347914,31.0763992 C134.170122,31.0833169 134.937214,30.7185912 135.649922,29.9823694 L136.340348,29.2677838 L135.098167,28.154767 C134.116764,27.2631173 133.28708,26.7441412 132.609406,26.5975444 C131.941115,26.4508005 131.339373,26.6542109 130.804183,27.2074812 C130.385236,27.6406481 130.195845,28.0963344 130.23601,28.5749816 C130.28072,29.0580444 130.53798,29.5287437 131.007646,29.9866377 Z" id="Shape"></path><path d="M144.097752,48.9863723 L150.228035,45.381505 C151.000551,44.9272906 151.474028,44.411847 151.648467,43.835027 C151.822906,43.258207 151.690977,42.5935173 151.252681,41.841105 C150.672195,40.8455423 149.978837,40.2738739 149.172606,40.1259524 C148.366376,39.9781782 147.346128,40.2669561 146.111862,40.9924335 L141.141084,43.915979 L140.299673,42.4747386 L149.776546,36.9021484 L150.461109,38.0741866 L149.300137,39.0713683 L149.341182,39.1406927 C149.980303,39.1614458 150.581311,39.3633844 151.145672,39.7468026 C151.715897,40.1266884 152.192306,40.643751 152.573433,41.2978434 C153.241871,42.4438297 153.467616,43.4689767 153.252133,44.3732844 C153.042513,45.2740596 152.331564,46.080489 151.120752,46.7922781 L144.939163,50.4276127 L144.097752,48.9863723 Z" id="Path"></path><path d="M152.328632,67.2211838 L152.305178,67.1334612 C151.034266,66.6626148 150.210445,65.6829481 149.832249,64.194314 C149.477508,62.7969349 149.678333,61.5864813 150.431792,60.5629534 C151.186717,59.5459016 152.441504,58.813065 154.196155,58.3641492 C155.950806,57.9153806 157.412282,57.9567397 158.580583,58.4882266 C159.750351,59.0198606 160.511139,59.9811291 160.864415,61.3720321 C161.232349,62.8215149 160.989014,64.0671457 160.137341,65.1090719 L160.16959,65.2357986 L160.918652,64.9713063 L161.657452,64.740961 L165.987643,63.6329485 L166.398088,65.2514003 L151.289328,69.1172274 L150.955109,67.8009475 L152.328632,67.2211838 Z M151.23509,64.0537519 C151.515072,65.1588206 152.016401,65.8820901 152.736145,66.2237077 C153.46615,66.5701823 154.496659,66.5728317 155.830604,66.2316557 L156.170687,66.1446691 C157.679071,65.7587487 158.689058,65.2303527 159.200648,64.559334 C159.721033,63.8931725 159.841235,63.0077045 159.561253,61.9026358 C159.32085,60.9535837 158.766749,60.3200973 157.900418,60.0018822 C157.041416,59.6885243 155.942011,59.7032429 154.602202,60.0461851 C153.241871,60.3939844 152.280258,60.9067787 151.714431,61.5844207 C151.148604,62.26221 150.988824,63.0852713 151.23509,64.0537519 Z" id="Shape"></path><path d="M161.767393,99.9468493 C161.664782,100.425644 161.534319,100.846741 161.374539,101.21029 L159.914528,100.659669 C160.108024,100.234744 160.239952,99.8516203 160.313246,99.5105915 C160.499412,98.638223 160.305917,97.8147201 159.73276,97.0399357 C159.159603,96.2716274 158.346044,95.7744347 157.295012,95.5483578 L151.532663,94.3096446 L151.881541,92.6764743 L162.620531,94.9853733 L162.33322,96.3332981 L160.304451,96.0925026 L160.28686,96.1712468 C160.901061,96.7215734 161.337892,97.3195881 161.595885,97.9651437 C161.853879,98.6106993 161.911048,99.2712678 161.767393,99.9468493 Z" id="Path"></path><path d="M143.979016,115.809766 C144.729543,114.364846 145.761518,113.453032 147.074941,113.07403 C148.383966,112.701209 149.817591,112.92287 151.374348,113.739455 C152.944299,114.562222 153.989467,115.602235 154.511318,116.859493 C155.030237,118.122787 154.949614,119.408452 154.269449,120.716489 C153.631794,121.941367 152.724418,122.699372 151.548787,122.990653 C150.377554,123.285171 149.135959,123.087648 147.821071,122.398378 L146.888775,121.909428 L150.390747,115.175691 C149.231241,114.606231 148.213925,114.439764 147.337332,114.676291 C146.457808,114.918853 145.758586,115.539534 145.238201,116.538482 C144.69143,117.590858 144.368938,118.746264 144.27219,120.0047 L142.958768,119.315431 C143.005676,118.674291 143.103889,118.093938 143.253408,117.574521 C143.394132,117.058047 143.636001,116.469746 143.979016,115.809766 Z M153.043979,120.051358 C153.451491,119.266565 153.523319,118.505763 153.257996,117.768953 C152.989741,117.038177 152.426846,116.39527 151.570775,115.840087 L148.913147,120.950662 C149.84251,121.437993 150.661934,121.602546 151.369951,121.44388 C152.083831,121.288452 152.640863,120.824376 153.043979,120.051358 Z" id="Shape"></path><path d="M133.05342,131.102929 C133.541409,130.578507 134.083489,130.187435 134.679806,129.92986 C135.276417,129.681705 135.912313,129.598398 136.585149,129.679792 L136.667238,129.591628 C136.143921,129.210859 135.673376,128.823467 135.252963,128.429598 L131.950789,125.331638 L133.086402,124.111323 L144.713418,135.019535 L143.789918,136.012007 L142.53513,135.150677 L142.479427,135.209551 C142.62748,135.935323 142.604026,136.598835 142.411997,137.19788 C142.219967,137.798397 141.872555,138.366533 141.371226,138.906704 C140.377364,139.97527 139.247176,140.456567 137.982127,140.353537 C136.711214,140.253451 135.419926,139.588173 134.106796,138.35623 C132.788829,137.119872 132.039768,135.861877 131.859319,134.581952 C131.67931,133.311447 132.077441,132.151772 133.05342,131.102929 Z M140.503429,137.761601 C141.268615,136.937362 141.596971,136.129313 141.484099,135.335984 C141.372692,134.542507 140.825921,133.676025 139.843786,132.736688 L139.5726,132.482498 C138.445343,131.424676 137.461741,130.855363 136.623262,130.774852 C135.787714,130.698904 134.983242,131.077465 134.207942,131.910683 C133.560319,132.606723 133.334721,133.414035 133.531294,134.332767 C133.723177,135.256356 134.312165,136.180828 135.298112,137.105153 C136.299304,138.044197 137.24919,138.565233 138.150702,138.666791 C139.05368,138.778652 139.836457,138.476922 140.503429,137.761601 Z" id="Shape"></path><path d="M118.055773,143.241317 C119.440437,142.390585 120.792559,142.141841 122.111992,142.495086 C123.425854,142.851275 124.541238,143.782959 125.458142,145.287195 C126.381935,146.803206 126.745472,148.235321 126.548605,149.58354 C126.345875,150.934703 125.617775,151.99591 124.36416,152.76569 C123.190289,153.486899 122.024333,153.667937 120.866292,153.310277 C119.711917,152.957032 118.747665,152.146039 117.973684,150.875829 L117.424568,149.975053 L123.878077,146.009876 C123.176656,144.923647 122.389628,144.255425 121.516701,144.005209 C120.638056,143.757938 119.720126,143.928673 118.762764,144.517415 C117.754096,145.137066 116.885859,145.961305 116.158053,146.990131 L115.384072,145.719921 C115.753032,145.194468 116.134745,144.748496 116.529065,144.379061 C116.914297,144.009625 117.423248,143.629886 118.055773,143.241317 Z M123.654238,151.561713 C124.406524,151.099551 124.85772,150.484315 125.008119,149.716007 C125.1528,148.950642 125.000056,148.108741 124.549886,147.190304 L119.651963,150.198775 C120.19932,151.096607 120.817186,151.661799 121.505413,151.891408 C122.197159,152.126905 122.913532,152.016516 123.654238,151.561713 Z" id="Shape"></path><path d="M99.3093009,151.386562 L100.071555,152.796599 L100.148367,152.774521 C100.477456,151.954698 100.86943,151.348294 101.324144,150.953837 C101.774314,150.568211 102.390128,150.257649 103.171292,150.025096 C104.21514,149.713063 105.114747,149.739556 105.870112,150.101633 C106.619027,150.465181 107.141024,151.14665 107.435958,152.143096 C108.067603,154.277285 106.698477,155.903685 103.32858,157.020823 L101.558977,157.612509 L101.753059,158.267484 C101.998593,159.097611 102.358611,159.653972 102.833261,159.939512 C103.303367,160.233883 103.929148,160.26332 104.710312,160.030767 C105.587638,159.768776 106.500437,159.202112 107.448418,158.332246 L108.300677,159.411116 C107.865752,159.848257 107.364716,160.23977 106.797423,160.584184 C106.223827,160.93007 105.626483,161.195004 105.005393,161.380458 C103.750165,161.754309 102.738859,161.752837 101.971327,161.373098 C101.197493,160.994832 100.627854,160.188255 100.262559,158.953369 L98.1278067,151.739807 L99.3093009,151.386562 Z M103.245318,151.441021 C102.252775,151.736864 101.555606,152.24171 101.15381,152.957032 C100.745564,153.673825 100.687076,154.523085 100.978198,155.507756 L101.260672,156.46299 L102.835167,155.919876 C104.089808,155.495981 104.946611,155.023516 105.40543,154.501007 C105.859851,153.988802 105.977707,153.361792 105.758852,152.62292 C105.587638,152.04301 105.284349,151.65444 104.849131,151.455739 C104.407463,151.258511 103.872859,151.254095 103.245318,151.441021 Z" id="Shape"></path><path d="M84.2744211,154.718842 C83.9810997,154.736504 83.6987725,154.773301 83.4277324,154.829231 C83.1569856,154.892521 82.942968,154.952867 82.7856798,155.008797 L82.7112134,153.732699 C82.8860921,153.635557 83.1487767,153.548717 83.4991205,153.475124 C83.8424281,153.394172 84.1540728,153.345601 84.4342013,153.329411 C86.5548807,153.204303 87.6808183,154.264039 87.8118674,156.507146 L88.1943138,163.055429 L89.7648509,162.962702 L89.8117588,163.766335 L88.2816799,164.552305 L87.7187844,166.94407 L86.7584906,167 L86.6094112,164.449275 L83.4283188,164.636201 L83.3526797,163.340968 L86.5337721,163.154043 L86.1552836,156.674937 C86.1165845,156.012602 85.9301254,155.512172 85.5960528,155.175117 C85.2618336,154.839534 84.8213385,154.687933 84.2744211,154.718842 Z" id="Path"></path></g></g></g></svg> 