<svg xmlns="http://www.w3.org/2000/svg" width="689" height="667"><path fill-rule="evenodd" d="M482.59 157.83c34.22 51.657 58.86 89.75 104.336 141.864 45.324 52.113 111.333 118.244 100.991 162.129-10.495 44.037-97.34 65.98-164.566 96.455-67.226 30.475-114.984 69.331-178.407 91.121-63.423 21.79-142.665 26.361-210.955-3.657C65.7 615.572 8.663 550.659.906 480.718c-7.604-70.094 34.374-145.216 61.142-224.604 26.921-79.236 38.48-162.739 85.782-210.128C195.13-1.403 277.87-12.527 341.294 14.292c63.271 26.97 107.074 92.035 141.296 143.539z"/></svg>