<svg xmlns="http://www.w3.org/2000/svg" width="643" height="585"><path fill-rule="evenodd" d="M477.923 51.819c54.268 29.517 98.51 82.969 128.112 147.27 29.76 64.46 44.879 140.09 32.783 215.88-12.254 75.789-51.563 151.738-113.47 166.896-61.749 15.317-145.936-30.156-225.986-36.06-79.891-5.744-155.645 28.082-203.866 8.456-48.22-19.785-68.75-92.861-81.8-161.79-13.05-68.928-18.62-133.389-8.435-201.36 10.344-67.97 36.444-139.452 87.53-170.087C143.717-9.77 219.47.122 289.495 8.1c70.023 7.978 134.159 14.041 188.428 43.719z"/></svg>